<svg width="131" height="32" viewBox="0 0 131 32" fill="none" xmlns="http://www.w3.org/2000/svg">
<g clip-path="url(#clip0_0_26)">
<g filter="url(#filter0_d_0_26)">
<path fill-rule="evenodd" clip-rule="evenodd" d="M16 32C24.8366 32 32 24.8366 32 16C32 7.16344 24.8366 0 16 0C7.16344 0 0 7.16344 0 16C0 24.8366 7.16344 32 16 32Z" fill="white"/>
</g>
<path fill-rule="evenodd" clip-rule="evenodd" d="M19 16.5L14 20V13L19 16.5Z" fill="#222F33" stroke="#222F33" stroke-width="2" stroke-linecap="round" stroke-linejoin="round"/>
<path d="M43.224 19C43.144 19 43.076 18.972 43.02 18.916C42.964 18.86 42.936 18.792 42.936 18.712V10.9C42.936 10.812 42.96 10.74 43.008 10.684C43.064 10.628 43.136 10.6 43.224 10.6H46.704C47.64 10.6 48.34 10.808 48.804 11.224C49.268 11.632 49.5 12.192 49.5 12.904C49.5 13.32 49.396 13.676 49.188 13.972C48.988 14.26 48.752 14.468 48.48 14.596C48.816 14.748 49.1 14.996 49.332 15.34C49.564 15.684 49.68 16.076 49.68 16.516C49.68 17.26 49.428 17.86 48.924 18.316C48.42 18.772 47.716 19 46.812 19H43.224ZM46.488 14.044C46.896 14.044 47.208 13.944 47.424 13.744C47.648 13.544 47.76 13.276 47.76 12.94C47.76 12.604 47.652 12.344 47.436 12.16C47.22 11.976 46.904 11.884 46.488 11.884H44.628V14.044H46.488ZM46.608 17.716C47.024 17.716 47.348 17.604 47.58 17.38C47.812 17.148 47.928 16.856 47.928 16.504C47.928 16.152 47.808 15.864 47.568 15.64C47.336 15.408 47.016 15.292 46.608 15.292H44.628V17.716H46.608ZM53.7303 19.12C52.8343 19.12 52.1223 18.864 51.5943 18.352C51.0743 17.84 50.7983 17.112 50.7663 16.168L50.7543 15.868C50.7543 14.868 51.0143 14.08 51.5343 13.504C52.0623 12.928 52.7903 12.64 53.7183 12.64C54.6703 12.64 55.4023 12.928 55.9143 13.504C56.4343 14.08 56.6943 14.848 56.6943 15.808V16.06C56.6943 16.14 56.6663 16.208 56.6103 16.264C56.5543 16.32 56.4823 16.348 56.3943 16.348H52.4103V16.444C52.4263 16.892 52.5463 17.264 52.7703 17.56C53.0023 17.848 53.3183 17.992 53.7183 17.992C54.1743 17.992 54.5463 17.808 54.8343 17.44C54.9063 17.352 54.9623 17.3 55.0023 17.284C55.0423 17.26 55.1103 17.248 55.2063 17.248H56.2623C56.3343 17.248 56.3943 17.268 56.4423 17.308C56.4983 17.348 56.5263 17.404 56.5263 17.476C56.5263 17.668 56.4103 17.896 56.1783 18.16C55.9543 18.416 55.6303 18.64 55.2063 18.832C54.7823 19.024 54.2903 19.12 53.7303 19.12ZM55.0383 15.328V15.304C55.0383 14.832 54.9183 14.456 54.6783 14.176C54.4463 13.888 54.1263 13.744 53.7183 13.744C53.3103 13.744 52.9903 13.888 52.7583 14.176C52.5263 14.456 52.4103 14.832 52.4103 15.304V15.328H55.0383ZM58.2678 19C58.1878 19 58.1198 18.972 58.0638 18.916C58.0078 18.86 57.9798 18.792 57.9798 18.712V10.768C57.9798 10.68 58.0078 10.612 58.0638 10.564C58.1198 10.508 58.1878 10.48 58.2678 10.48H59.2638C59.3438 10.48 59.4118 10.508 59.4678 10.564C59.5238 10.62 59.5518 10.688 59.5518 10.768V14.872L61.5438 12.964C61.5678 12.948 61.6038 12.92 61.6518 12.88C61.7078 12.832 61.7598 12.8 61.8078 12.784C61.8558 12.768 61.9158 12.76 61.9878 12.76H63.1278C63.2078 12.76 63.2718 12.784 63.3198 12.832C63.3678 12.88 63.3918 12.944 63.3918 13.024C63.3918 13.096 63.3518 13.168 63.2718 13.24L60.8238 15.556L63.5718 18.532C63.6438 18.604 63.6798 18.672 63.6798 18.736C63.6798 18.816 63.6558 18.88 63.6078 18.928C63.5598 18.976 63.4998 19 63.4278 19H62.2638C62.1518 19 62.0678 18.988 62.0118 18.964C61.9638 18.932 61.8998 18.876 61.8198 18.796L59.5518 16.384V18.712C59.5518 18.792 59.5238 18.86 59.4678 18.916C59.4118 18.972 59.3438 19 59.2638 19H58.2678ZM64.8289 11.74C64.7489 11.74 64.6809 11.712 64.6249 11.656C64.5689 11.6 64.5409 11.532 64.5409 11.452V10.576C64.5409 10.488 64.5689 10.416 64.6249 10.36C64.6809 10.304 64.7489 10.276 64.8289 10.276H65.9329C66.0209 10.276 66.0929 10.304 66.1489 10.36C66.2049 10.416 66.2329 10.488 66.2329 10.576V11.452C66.2329 11.532 66.2009 11.6 66.1369 11.656C66.0809 11.712 66.0129 11.74 65.9329 11.74H64.8289ZM64.8769 19C64.7969 19 64.7289 18.972 64.6729 18.916C64.6169 18.86 64.5889 18.792 64.5889 18.712V13.048C64.5889 12.96 64.6169 12.892 64.6729 12.844C64.7289 12.788 64.7969 12.76 64.8769 12.76H65.8969C65.9769 12.76 66.0449 12.788 66.1009 12.844C66.1569 12.9 66.1849 12.968 66.1849 13.048V18.712C66.1849 18.792 66.1569 18.86 66.1009 18.916C66.0449 18.972 65.9769 19 65.8969 19H64.8769ZM68.1247 11.74C68.0447 11.74 67.9767 11.712 67.9207 11.656C67.8647 11.6 67.8367 11.532 67.8367 11.452V10.576C67.8367 10.496 67.8647 10.428 67.9207 10.372C67.9767 10.308 68.0447 10.276 68.1247 10.276H69.2887C69.3687 10.276 69.4367 10.304 69.4927 10.36C69.5487 10.416 69.5767 10.488 69.5767 10.576V11.452C69.5767 11.532 69.5487 11.6 69.4927 11.656C69.4367 11.712 69.3687 11.74 69.2887 11.74H68.1247ZM66.7327 21.28C66.6447 21.28 66.5767 21.252 66.5287 21.196C66.4727 21.148 66.4447 21.08 66.4447 20.992V20.284C66.4447 20.204 66.4727 20.136 66.5287 20.08C66.5767 20.024 66.6447 19.996 66.7327 19.996H67.0447C67.3807 19.996 67.6047 19.908 67.7167 19.732C67.8367 19.564 67.8967 19.312 67.8967 18.976V13.048C67.8967 12.96 67.9247 12.892 67.9807 12.844C68.0367 12.788 68.1047 12.76 68.1847 12.76H69.2407C69.3287 12.76 69.3967 12.788 69.4447 12.844C69.5007 12.892 69.5287 12.96 69.5287 13.048V19.012C69.5287 19.732 69.3327 20.288 68.9407 20.68C68.5487 21.08 67.9687 21.28 67.2007 21.28H66.7327ZM71.4279 19C71.3479 19 71.2799 18.972 71.2239 18.916C71.1679 18.86 71.1399 18.792 71.1399 18.712V10.768C71.1399 10.68 71.1679 10.612 71.2239 10.564C71.2799 10.508 71.3479 10.48 71.4279 10.48H72.4239C72.5039 10.48 72.5719 10.508 72.6279 10.564C72.6839 10.62 72.7119 10.688 72.7119 10.768V14.872L74.7039 12.964C74.7279 12.948 74.7639 12.92 74.8119 12.88C74.8679 12.832 74.9199 12.8 74.9679 12.784C75.0159 12.768 75.0759 12.76 75.1479 12.76H76.2879C76.3679 12.76 76.4319 12.784 76.4799 12.832C76.5279 12.88 76.5519 12.944 76.5519 13.024C76.5519 13.096 76.5119 13.168 76.4319 13.24L73.9839 15.556L76.7319 18.532C76.8039 18.604 76.8399 18.672 76.8399 18.736C76.8399 18.816 76.8159 18.88 76.7679 18.928C76.7199 18.976 76.6599 19 76.5879 19H75.4239C75.3119 19 75.2279 18.988 75.1719 18.964C75.1239 18.932 75.0599 18.876 74.9799 18.796L72.7119 16.384V18.712C72.7119 18.792 72.6839 18.86 72.6279 18.916C72.5719 18.972 72.5039 19 72.4239 19H71.4279ZM82.7135 19.12C81.9055 19.12 81.2855 18.864 80.8535 18.352C80.4215 17.832 80.1855 17.14 80.1455 16.276L80.1335 15.88L80.1455 15.484C80.1775 14.636 80.4095 13.952 80.8415 13.432C81.2815 12.904 81.9055 12.64 82.7135 12.64C83.4815 12.64 84.0935 12.904 84.5495 13.432V10.768C84.5495 10.68 84.5775 10.612 84.6335 10.564C84.6895 10.508 84.7575 10.48 84.8375 10.48H85.8815C85.9695 10.48 86.0375 10.508 86.0855 10.564C86.1415 10.612 86.1695 10.68 86.1695 10.768V18.712C86.1695 18.792 86.1415 18.86 86.0855 18.916C86.0375 18.972 85.9695 19 85.8815 19H84.9095C84.8295 19 84.7615 18.972 84.7055 18.916C84.6495 18.86 84.6215 18.792 84.6215 18.712V18.268C84.1815 18.836 83.5455 19.12 82.7135 19.12ZM83.1695 17.824C83.6255 17.824 83.9615 17.68 84.1775 17.392C84.4015 17.096 84.5255 16.732 84.5495 16.3C84.5575 16.204 84.5615 16.052 84.5615 15.844C84.5615 15.628 84.5575 15.472 84.5495 15.376C84.5335 14.976 84.4095 14.636 84.1775 14.356C83.9455 14.076 83.6095 13.936 83.1695 13.936C82.3135 13.936 81.8575 14.464 81.8015 15.52L81.7895 15.88L81.8015 16.24C81.8575 17.296 82.3135 17.824 83.1695 17.824ZM90.4686 19.12C89.5726 19.12 88.8606 18.864 88.3326 18.352C87.8126 17.84 87.5366 17.112 87.5046 16.168L87.4926 15.868C87.4926 14.868 87.7526 14.08 88.2726 13.504C88.8006 12.928 89.5286 12.64 90.4566 12.64C91.4086 12.64 92.1406 12.928 92.6526 13.504C93.1726 14.08 93.4326 14.848 93.4326 15.808V16.06C93.4326 16.14 93.4046 16.208 93.3486 16.264C93.2926 16.32 93.2206 16.348 93.1326 16.348H89.1486V16.444C89.1646 16.892 89.2846 17.264 89.5086 17.56C89.7406 17.848 90.0566 17.992 90.4566 17.992C90.9126 17.992 91.2846 17.808 91.5726 17.44C91.6446 17.352 91.7006 17.3 91.7406 17.284C91.7806 17.26 91.8486 17.248 91.9446 17.248H93.0006C93.0726 17.248 93.1326 17.268 93.1806 17.308C93.2366 17.348 93.2646 17.404 93.2646 17.476C93.2646 17.668 93.1486 17.896 92.9166 18.16C92.6926 18.416 92.3686 18.64 91.9446 18.832C91.5206 19.024 91.0286 19.12 90.4686 19.12ZM91.7766 15.328V15.304C91.7766 14.832 91.6566 14.456 91.4166 14.176C91.1846 13.888 90.8646 13.744 90.4566 13.744C90.0486 13.744 89.7286 13.888 89.4966 14.176C89.2646 14.456 89.1486 14.832 89.1486 15.304V15.328H91.7766ZM98.1856 19C98.1056 19 98.0376 18.972 97.9816 18.916C97.9256 18.86 97.8976 18.792 97.8976 18.712V14.044H96.9256C96.8456 14.044 96.7776 14.016 96.7216 13.96C96.6656 13.904 96.6376 13.836 96.6376 13.756V13.048C96.6376 12.968 96.6656 12.9 96.7216 12.844C96.7776 12.788 96.8456 12.76 96.9256 12.76H97.8976V12.28C97.8976 11.552 98.0936 11.012 98.4856 10.66C98.8776 10.3 99.4696 10.12 100.262 10.12H101.09C101.17 10.12 101.238 10.148 101.294 10.204C101.35 10.26 101.378 10.328 101.378 10.408V11.116C101.378 11.196 101.35 11.264 101.294 11.32C101.238 11.376 101.17 11.404 101.09 11.404H100.322C100.01 11.404 99.7896 11.48 99.6616 11.632C99.5336 11.784 99.4696 12.02 99.4696 12.34V12.76H100.97C101.05 12.76 101.118 12.788 101.174 12.844C101.23 12.9 101.258 12.968 101.258 13.048V13.756C101.258 13.836 101.23 13.904 101.174 13.96C101.118 14.016 101.05 14.044 100.97 14.044H99.4696V18.712C99.4696 18.792 99.4416 18.86 99.3856 18.916C99.3376 18.972 99.2696 19 99.1816 19H98.1856ZM102.446 11.74C102.366 11.74 102.298 11.712 102.242 11.656C102.186 11.6 102.158 11.532 102.158 11.452V10.576C102.158 10.488 102.186 10.416 102.242 10.36C102.298 10.304 102.366 10.276 102.446 10.276H103.55C103.638 10.276 103.71 10.304 103.766 10.36C103.822 10.416 103.85 10.488 103.85 10.576V11.452C103.85 11.532 103.818 11.6 103.754 11.656C103.698 11.712 103.63 11.74 103.55 11.74H102.446ZM102.494 19C102.414 19 102.346 18.972 102.29 18.916C102.234 18.86 102.206 18.792 102.206 18.712V13.048C102.206 12.96 102.234 12.892 102.29 12.844C102.346 12.788 102.414 12.76 102.494 12.76H103.514C103.594 12.76 103.662 12.788 103.718 12.844C103.774 12.9 103.802 12.968 103.802 13.048V18.712C103.802 18.792 103.774 18.86 103.718 18.916C103.662 18.972 103.594 19 103.514 19H102.494ZM105.682 19C105.602 19 105.534 18.972 105.478 18.916C105.422 18.86 105.394 18.792 105.394 18.712V10.768C105.394 10.68 105.422 10.612 105.478 10.564C105.534 10.508 105.602 10.48 105.682 10.48H106.69C106.778 10.48 106.846 10.508 106.894 10.564C106.95 10.612 106.978 10.68 106.978 10.768V18.712C106.978 18.792 106.95 18.86 106.894 18.916C106.846 18.972 106.778 19 106.69 19H105.682ZM108.857 19C108.777 19 108.709 18.972 108.653 18.916C108.597 18.86 108.569 18.792 108.569 18.712V13.048C108.569 12.96 108.597 12.892 108.653 12.844C108.709 12.788 108.777 12.76 108.857 12.76H109.805C109.893 12.76 109.961 12.788 110.009 12.844C110.065 12.892 110.093 12.96 110.093 13.048V13.456C110.525 12.912 111.105 12.64 111.833 12.64C112.721 12.64 113.341 12.996 113.693 13.708C113.885 13.388 114.157 13.132 114.509 12.94C114.861 12.74 115.241 12.64 115.649 12.64C116.305 12.64 116.841 12.864 117.257 13.312C117.673 13.76 117.881 14.412 117.881 15.268V18.712C117.881 18.792 117.853 18.86 117.797 18.916C117.749 18.972 117.681 19 117.593 19H116.597C116.517 19 116.449 18.972 116.393 18.916C116.337 18.86 116.309 18.792 116.309 18.712V15.364C116.309 14.86 116.201 14.496 115.985 14.272C115.777 14.048 115.501 13.936 115.157 13.936C114.845 13.936 114.577 14.052 114.353 14.284C114.137 14.508 114.029 14.868 114.029 15.364V18.712C114.029 18.792 114.001 18.86 113.945 18.916C113.897 18.972 113.829 19 113.741 19H112.733C112.653 19 112.585 18.972 112.529 18.916C112.473 18.86 112.445 18.792 112.445 18.712V15.364C112.445 14.868 112.337 14.508 112.121 14.284C111.905 14.052 111.629 13.936 111.293 13.936C110.981 13.936 110.713 14.052 110.489 14.284C110.273 14.508 110.165 14.868 110.165 15.364V18.712C110.165 18.792 110.137 18.86 110.081 18.916C110.033 18.972 109.965 19 109.877 19H108.857Z" fill="white"/>
</g>
<defs>
<filter id="filter0_d_0_26" x="-20" y="-18" width="72" height="72" filterUnits="userSpaceOnUse" color-interpolation-filters="sRGB">
<feFlood flood-opacity="0" result="BackgroundImageFix"/>
<feColorMatrix in="SourceAlpha" type="matrix" values="0 0 0 0 0 0 0 0 0 0 0 0 0 0 0 0 0 0 127 0" result="hardAlpha"/>
<feOffset dy="2"/>
<feGaussianBlur stdDeviation="10"/>
<feColorMatrix type="matrix" values="0 0 0 0 0 0 0 0 0 0 0 0 0 0 0 0 0 0 0.5 0"/>
<feBlend mode="normal" in2="BackgroundImageFix" result="effect1_dropShadow_0_26"/>
<feBlend mode="normal" in="SourceGraphic" in2="effect1_dropShadow_0_26" result="shape"/>
</filter>
<clipPath id="clip0_0_26">
<rect width="131" height="32" fill="white"/>
</clipPath>
</defs>
</svg>
